# xmcd
#
# Track frame offsets:
#	150
#	3370
#	20747
#	28947
#	44276
#	49069
#	66097
#	84267
#	88309
#	102390
#	107028
#	128105
#	139763
#	152012
#	156817
#	176995
#	185759
#	208120
#	210493
#
# Disc length: 3064 seconds
#
# Revision: 0
# Processed by: cddbd v1.4PL0 Copyright (c) Steve Scherf et al.
# Submitted via: dBpowerAMP V4.0
#
DISCID=0d0bf613
DTITLE=Grand Agent - fish outta water 
DYEAR=2003
DGENRE=Hip-Hop
TTITLE0=Trailer
TTITLE1=The Jig Is Up
TTITLE2=Fish Outta Water
TTITLE3=Right Way Street
TTITLE4=We Have The Masters
TTITLE5=Skillz Philly
TTITLE6=No Reset 
TTITLE7=Invocation
TTITLE8=Mingling Goes To Church 
TTITLE9=Sister J
TTITLE10=I Need A Girl
TTITLE11=Japanese Connect
TTITLE12=What I Want
TTITLE13=Backstage
TTITLE14=Release Party
TTITLE15=Really Would like to see you
TTITLE16=Who programmed us anyway
TTITLE17=Stay Up
TTITLE18=Gospel anonymous
EXTD=
EXTT0=
EXTT1=
EXTT2=
EXTT3=
EXTT4=
EXTT5=
EXTT6=
EXTT7=
EXTT8=
EXTT9=
EXTT10=
EXTT11=
EXTT12=
EXTT13=
EXTT14=
EXTT15=
EXTT16=
EXTT17=
EXTT18=
PLAYORDER=
